<svg width="32" height="32" viewBox="0 0 32 32" fill="none" xmlns="http://www.w3.org/2000/svg">
<g clip-path="url(#clip0_1_2)">
<rect width="32" height="32" fill="#4433EC"/>
<path d="M19.5717 9.20796L16.5585 12.2212C16.2089 11.952 15.8473 11.7552 15.4737 11.6306C15.1 11.5061 14.7224 11.4578 14.3407 11.486C13.959 11.5141 13.5814 11.6226 13.2077 11.8114C12.8341 11.9922 12.4785 12.2513 12.141 12.5888C11.5424 13.1874 11.1728 13.8504 11.0322 14.5776C10.8956 15.3007 10.988 16.056 11.3094 16.8435C11.6348 17.627 12.1913 18.4124 12.9787 19.1999C13.7983 20.0195 14.6019 20.59 15.3893 20.9114C16.1768 21.2248 16.9241 21.3091 17.6312 21.1645C18.3383 21.0118 18.9851 20.6422 19.5717 20.0556C19.9011 19.7262 20.1583 19.3847 20.3431 19.0311C20.5319 18.6735 20.6484 18.312 20.6926 17.9464C20.7368 17.5727 20.7087 17.2031 20.6082 16.8375C20.5078 16.4638 20.335 16.1023 20.09 15.7527L23.1213 12.7576C23.6155 13.3562 23.9951 14.0532 24.2603 14.8487C24.5295 15.6402 24.654 16.4839 24.6339 17.3799C24.6098 18.2718 24.3969 19.1758 23.9951 20.0918C23.5974 21.0038 22.9746 21.8837 22.1269 22.7314C21.01 23.8483 19.7645 24.6036 18.3905 24.9973C17.0165 25.383 15.6023 25.3589 14.1479 24.925C12.6935 24.4911 11.2893 23.5972 9.93535 22.2432C8.57739 20.8853 7.68547 19.4751 7.2596 18.0126C6.83373 16.5502 6.81766 15.132 7.21139 13.758C7.60512 12.3839 8.35039 11.1485 9.44721 10.0517C10.1945 9.30438 10.99 8.71781 11.8337 8.29194C12.6734 7.86205 13.5332 7.60492 14.413 7.52055C15.2889 7.43216 16.1647 7.52457 17.0406 7.79777C17.9164 8.07096 18.7601 8.54103 19.5717 9.20796ZM17.6794 36.8695C17.0044 37.5445 16.3134 37.8819 15.6063 37.8819C14.8992 37.8819 14.2081 37.5445 13.5332 36.8695L-4.69091 18.6454C-5.36587 17.9705 -5.70336 17.2794 -5.70336 16.5723C-5.70336 15.8652 -5.36587 15.1742 -4.69091 14.4992L13.5332 -3.72486C14.2081 -4.39983 14.8992 -4.73731 15.6063 -4.73731C16.3134 -4.73731 17.0044 -4.39983 17.6794 -3.72486L35.9034 14.4992C36.5784 15.1742 36.9159 15.8652 36.9159 16.5723C36.9159 17.2794 36.5784 17.9705 35.9034 18.6454L17.6794 36.8695ZM15.781 35.1278L34.1678 16.7411C34.2201 16.6888 34.2442 16.6326 34.2401 16.5723C34.2401 16.508 34.214 16.4498 34.1618 16.3975L15.781 -1.98321C15.7248 -2.03946 15.6665 -2.06557 15.6063 -2.06155C15.546 -2.06557 15.4898 -2.04147 15.4375 -1.98924L-2.94926 16.3975C-2.99747 16.4458 -3.02157 16.502 -3.02157 16.5663C-3.02559 16.6266 -2.99948 16.6848 -2.94323 16.7411L15.4375 35.1218C15.4898 35.174 15.548 35.2002 15.6123 35.2002C15.6766 35.2002 15.7328 35.1761 15.781 35.1278Z" fill="white"/>
</g>
<defs>
<clipPath id="clip0_1_2">
<rect width="32" height="32" fill="white"/>
</clipPath>
</defs>
</svg>
